<svg width="156" height="156" viewBox="0 0 156 156" fill="none" xmlns="http://www.w3.org/2000/svg">
<path d="M4 40C6.20914 40 8 38.2091 8 36C8 33.7909 6.20914 32 4 32C1.79086 32 0 33.7909 0 36C0 38.2091 1.79086 40 4 40Z" fill="#EE3E54"/>
<path d="M132 6C133.105 6 134 5.10457 134 4C134 2.89543 133.105 2 132 2C130.895 2 130 2.89543 130 4C130 5.10457 130.895 6 132 6Z" fill="#F1BC19"/>
<path d="M78 152C118.869 152 152 118.869 152 78C152 37.1309 118.869 4 78 4C37.1309 4 4 37.1309 4 78C4 118.869 37.1309 152 78 152Z" fill="#FCE0A2"/>
<path d="M144 16C148.418 16 152 12.4183 152 8C152 3.58172 148.418 0 144 0C139.582 0 136 3.58172 136 8C136 12.4183 139.582 16 144 16Z" fill="#F1BC19"/>
<path d="M152 30C154.209 30 156 28.2091 156 26C156 23.7909 154.209 22 152 22C149.791 22 148 23.7909 148 26C148 28.2091 149.791 30 152 30Z" fill="#EE3E54"/>
<path d="M140 134C142.209 134 144 132.209 144 130C144 127.791 142.209 126 140 126C137.791 126 136 127.791 136 130C136 132.209 137.791 134 140 134Z" fill="#FBCD59"/>
<path d="M8 112C12.4183 112 16 108.418 16 104C16 99.5817 12.4183 96 8 96C3.58172 96 0 99.5817 0 104C0 108.418 3.58172 112 8 112Z" fill="#FBCD59"/>
<path d="M28 156C30.2091 156 32 154.209 32 152C32 149.791 30.2091 148 28 148C25.7909 148 24 149.791 24 152C24 154.209 25.7909 156 28 156Z" fill="#EE3E54"/>
<path d="M15 90C17.7614 90 20 87.7614 20 85C20 82.2386 17.7614 80 15 80C12.2386 80 10 82.2386 10 85C10 87.7614 12.2386 90 15 90Z" fill="white"/>
<path d="M20 114C21.1046 114 22 113.105 22 112C22 110.895 21.1046 110 20 110C18.8954 110 18 110.895 18 112C18 113.105 18.8954 114 20 114Z" fill="#F1BC19"/>
<path d="M138 48C139.105 48 140 47.1046 140 46C140 44.8954 139.105 44 138 44C136.895 44 136 44.8954 136 46C136 47.1046 136.895 48 138 48Z" fill="white"/>
<path d="M78 125.916C104.463 125.916 125.916 104.463 125.916 78C125.916 51.5367 104.463 30.084 78 30.084C51.5367 30.084 30.084 51.5367 30.084 78C30.084 104.463 51.5367 125.916 78 125.916Z" fill="white"/>
<path d="M78 30C51.54 30 30 51.54 30 78C30 104.46 51.54 126 78 126C104.46 126 126 104.46 126 78C126 51.54 104.46 30 78 30ZM78 118C55.94 118 38 100.06 38 78C38 55.94 55.94 38 78 38C100.06 38 118 55.94 118 78C118 100.06 100.06 118 78 118Z" fill="#78A0CF"/>
<path d="M78 30.8C104.026 30.8 125.2 51.974 125.2 78C125.2 104.026 104.026 125.2 78 125.2C51.974 125.2 30.8 104.026 30.8 78C30.8 51.974 51.974 30.8 78 30.8ZM78 28C50.386 28 28 50.386 28 78C28 105.614 50.386 128 78 128C105.614 128 128 105.614 128 78C128 50.386 105.614 28 78 28Z" fill="#472B29"/>
<path d="M96.5321 67.946L88.4521 69.018C88.4521 69.018 89.6741 58.72 76.2221 58.72C69.3781 58.72 66.7801 62.838 66.7801 65.946C66.7801 69.742 70.2821 71.534 81.2121 73.888C92.1441 76.242 97.4661 80.322 97.4661 87.528C97.4661 94.734 92.1941 101.856 77.9841 101.856C65.1501 101.856 59.4441 96.224 57.3521 85.654C61.8201 85.03 65.7641 84.454 65.7641 84.454C65.7641 84.454 64.3461 96.098 77.9321 96.098C84.1101 96.098 89.6741 94.302 89.6741 88.442C89.6741 82.582 84.0161 81.428 77.0781 80.18C70.1381 78.93 59.2541 76.48 59.2541 66.056C59.2541 56.81 69.3301 52.654 76.1261 52.654C91.0001 52.654 96.5321 60.912 96.5321 67.946Z" fill="#836F61"/>
<path d="M77.984 102.358C65.648 102.358 59.134 97.236 56.862 85.754C56.834 85.62 56.864 85.48 56.946 85.368C57.026 85.256 57.148 85.182 57.284 85.162C61.75 84.538 65.692 83.96 65.694 83.96C65.846 83.94 66.004 83.988 66.114 84.098C66.226 84.206 66.28 84.36 66.262 84.514C66.258 84.558 65.762 89.016 68.61 92.224C70.598 94.464 73.734 95.598 77.934 95.598C83.062 95.598 89.176 94.356 89.176 88.44C89.176 83.238 84.572 82.034 76.99 80.67C71.072 79.604 58.756 77.388 58.756 66.054C58.756 56.57 69.122 52.15 76.128 52.15C90.57 52.15 97.034 60.082 97.034 67.942C97.034 68.192 96.848 68.404 96.6 68.438L88.52 69.51C88.374 69.528 88.216 69.478 88.104 69.37C87.994 69.262 87.94 69.108 87.958 68.956C87.962 68.92 88.342 65.336 85.874 62.566C83.892 60.344 80.646 59.216 76.224 59.216C70.08 59.216 67.282 62.704 67.282 65.942C67.282 69.336 70.562 71.078 81.322 73.396C92.836 75.876 97.972 80.232 97.972 87.526C97.968 94.698 92.718 102.358 77.984 102.358ZM57.95 86.078C60.226 96.782 66.246 101.358 77.984 101.358C95.598 101.358 96.968 90.774 96.968 87.53C96.968 80.796 92.076 76.74 81.108 74.378C70.854 72.17 66.28 70.428 66.28 65.946C66.28 62.224 69.392 58.22 76.222 58.22C80.948 58.22 84.45 59.464 86.628 61.916C88.766 64.322 88.998 67.19 88.984 68.442L96.026 67.508C95.806 60.786 90.506 53.152 76.128 53.152C69.526 53.152 59.756 57.252 59.756 66.056C59.756 75.306 68.558 78.138 77.168 79.686C83.858 80.89 90.176 82.028 90.176 88.44C90.176 93.7 85.828 96.598 77.934 96.598C73.432 96.598 70.04 95.348 67.856 92.88C65.354 90.054 65.18 86.482 65.226 85.038C64.016 85.214 61.156 85.628 57.95 86.078Z" fill="#472B29"/>
<path d="M57.858 43.28C57.51 43.28 57.17 43.098 56.986 42.772C56.714 42.29 56.884 41.682 57.364 41.408C59.488 40.208 61.726 39.192 64.016 38.382C64.54 38.204 65.108 38.472 65.292 38.992C65.476 39.514 65.202 40.084 64.682 40.268C62.5 41.038 60.37 42.006 58.348 43.148C58.194 43.238 58.026 43.28 57.858 43.28Z" fill="#472B29"/>
<path d="M53.542 111.91C53.334 111.91 53.126 111.846 52.946 111.712C42.334 103.814 36 91.212 36 78C36 65.534 41.488 53.792 51.056 45.78C51.48 45.424 52.112 45.484 52.464 45.906C52.818 46.328 52.762 46.96 52.338 47.314C43.226 54.944 38 66.128 38 78C38 90.77 43.882 102.474 54.14 110.108C54.584 110.438 54.676 111.064 54.346 111.506C54.15 111.77 53.848 111.91 53.542 111.91Z" fill="#472B29"/>
<path d="M78 120C71.584 120 65.422 118.59 59.692 115.81C59.194 115.568 58.988 114.972 59.23 114.474C59.472 113.976 60.068 113.77 60.566 114.012C66.022 116.658 71.888 118 78 118C78.552 118 79 118.448 79 119C79 119.552 78.552 120 78 120Z" fill="#472B29"/>
<path d="M85.368 119.34C84.894 119.34 84.472 119.002 84.384 118.518C84.286 117.974 84.646 117.454 85.19 117.354C86.54 117.11 87.886 116.792 89.194 116.412C89.724 116.252 90.278 116.562 90.434 117.092C90.59 117.622 90.284 118.176 89.754 118.332C88.38 118.732 86.966 119.066 85.548 119.324C85.486 119.334 85.426 119.34 85.368 119.34Z" fill="#472B29"/>
<path d="M95.872 115.912C95.5 115.912 95.144 115.704 94.972 115.348C94.73 114.85 94.938 114.252 95.434 114.012C109.142 107.362 118 93.226 118 78C118 55.944 100.056 38 78 38C75.55 38 73.098 38.222 70.714 38.662C70.166 38.77 69.65 38.402 69.548 37.86C69.448 37.316 69.806 36.794 70.35 36.694C72.854 36.234 75.428 36 78 36C101.16 36 120 54.84 120 78C120 93.988 110.7 108.83 96.308 115.81C96.166 115.878 96.018 115.912 95.872 115.912Z" fill="#472B29"/>
</svg>
